<svg xmlns="http://www.w3.org/2000/svg" viewBox="0 0 224 224"><g id="Layer_2" data-name="Layer 2"><g id="Layer_1-2" data-name="Layer 1"><circle cx="112" cy="112" r="112" style="fill:#3c96f6"/><path d="M112,209.64a97.87,97.87,0,1,1,97.86-97.86A98,98,0,0,1,112,209.64Zm0-191.73a93.87,93.87,0,1,0,93.86,93.87A94,94,0,0,0,112,17.91Z" style="fill:#fff"/><path d="M76.65,173.43c1.76,1,2.29,2.39,1.44,3.92s-2.42,2-4.17,1l-1.24-.69-1.07,1.93-1.75-1,3.81-6.86Zm-3.21,2.87,1.15.64a1.2,1.2,0,0,0,1.82-.44,1.18,1.18,0,0,0-.61-1.75l-1.15-.64Z" style="fill:#fff"/><path d="M85.34,183.41l0,0-1.43-.49L83.13,185l-1.88-.66,2.58-7.4,3.31,1.16c2,.68,2.76,2,2.18,3.65a2.6,2.6,0,0,1-2.17,1.91l.7,3-2.14-.75Zm.46-1.5a1.26,1.26,0,1,0,.83-2.36l-1.43-.49-.82,2.36Z" style="fill:#fff"/><path d="M102.43,185.52a4.25,4.25,0,0,1-8.38-1.32,4.25,4.25,0,0,1,8.38,1.32Zm-6.37-1a2.28,2.28,0,0,0,1.83,2.65,2.24,2.24,0,0,0,2.51-2,2.21,2.21,0,0,0-1.79-2.63A2.26,2.26,0,0,0,96.06,184.53Z" style="fill:#fff"/><path d="M114.7,185.6l.06,3.06a6.24,6.24,0,0,1-3.24,1.09,4,4,0,0,1-4.27-3.93,4.06,4.06,0,0,1,4.24-4.07,5,5,0,0,1,3.23,1.1l-1.09,1.38a3.2,3.2,0,0,0-2.12-.81,2.25,2.25,0,0,0-2.22,2.36,2.28,2.28,0,0,0,2.34,2.3,3.38,3.38,0,0,0,1.38-.41l0-2Z" style="fill:#fff"/><path d="M124.32,186h0l-1.48.29.42,2.16-2,.38-1.5-7.69,3.44-.67c2-.4,3.38.34,3.72,2.06a2.61,2.61,0,0,1-.91,2.74l2.11,2.22-2.22.44Zm-.35-1.53a1.19,1.19,0,0,0,1.09-1.5,1.16,1.16,0,0,0-1.57-.95l-1.49.29.48,2.45Z" style="fill:#fff"/><path d="M135.3,183.78v1.56l-1.91.74.31-8.53,1.91-.75,5.92,6.11-2,.77-1-1.14Zm0-4.73v3.11l2.11-.82Z" style="fill:#fff"/><path d="M152.65,176.58l-2.73-4.31.71,4.65-1.1.7L145.64,175l2.72,4.31-1.51.95-4.18-6.64,1.85-1.17,4.28,2.82-.68-5.08L150,169l4.19,6.64Z" style="fill:#fff"/><g style="opacity:0.6000000000000001"><path d="M52.67,129.67l-1.33,2.76A10.43,10.43,0,0,0,46.89,131c-.91,0-1.53.34-1.53,1,0,2.41,7.35,1,7.35,6.06,0,2.78-2.46,4.26-5.56,4.26a10.38,10.38,0,0,1-6.36-2.23l1.37-2.72a8.68,8.68,0,0,0,5,2.08c1.11,0,1.81-.41,1.81-1.21,0-2.46-7.35-1-7.35-5.92,0-2.56,2.2-4.19,5.54-4.19A10.48,10.48,0,0,1,52.67,129.67Z" style="fill:#fff"/><path d="M72,135.21a7.18,7.18,0,0,1-7.53,7.13c-4.29,0-7.51-3.05-7.51-7.13s3.22-7.05,7.51-7.05S72,131.18,72,135.21Zm-11.43,0a4.05,4.05,0,0,0,3.94,4.16,4.14,4.14,0,1,0-3.94-4.16Z" style="fill:#fff"/><path d="M86.43,139.23v3H77V128.28h3.53v10.95Z" style="fill:#fff"/><path d="M103.82,136.34c0,3.68-2.44,6-6.34,6s-6.41-2.32-6.41-6v-8.06H94.6v8.06a2.81,2.81,0,0,0,2.9,3,2.75,2.75,0,0,0,2.81-3v-8.06h3.51Z" style="fill:#fff"/><path d="M116,131.12v11.07h-3.53V131.12H108.3v-2.86h11.88v2.86Z" style="fill:#fff"/><path d="M124.87,142.19V128.28h3.53v13.91Z" style="fill:#fff"/><path d="M148.49,135.21a7.18,7.18,0,0,1-7.53,7.13c-4.29,0-7.51-3.05-7.51-7.13s3.22-7.05,7.51-7.05S148.49,131.18,148.49,135.21Zm-11.42,0a4,4,0,0,0,3.93,4.16,4.14,4.14,0,1,0-3.93-4.16Z" style="fill:#fff"/><path d="M163.26,142.19l-6.4-8.57v8.57h-3.32V128.28h3.12l6.42,8.58v-8.58h3.3v13.91Z" style="fill:#fff"/><path d="M183.17,129.67l-1.33,2.76a10.43,10.43,0,0,0-4.45-1.45c-.92,0-1.53.34-1.53,1,0,2.41,7.35,1,7.35,6.06,0,2.78-2.46,4.26-5.56,4.26a10.38,10.38,0,0,1-6.36-2.23l1.37-2.72a8.68,8.68,0,0,0,5,2.08c1.11,0,1.8-.41,1.8-1.21,0-2.46-7.35-1-7.35-5.92,0-2.56,2.21-4.19,5.55-4.19A10.48,10.48,0,0,1,183.17,129.67Z" style="fill:#fff"/></g><path d="M138.94,75.66V91.58a14.41,14.41,0,0,0-8.82-3,15.51,15.51,0,1,0,0,31,14.41,14.41,0,0,0,8.82-3V119h7.8V75.66Zm-8.13,36.64a8.22,8.22,0,1,1,8.21-8.22A8.22,8.22,0,0,1,130.81,112.3Z" style="fill:#fff"/><path d="M69.05,75.66V91.58a14.41,14.41,0,0,0-8.82-3,15.51,15.51,0,1,0,0,31,14.41,14.41,0,0,0,8.82-3V119h7.8V75.66ZM60.92,112.3a8.22,8.22,0,1,1,8.21-8.22A8.22,8.22,0,0,1,60.92,112.3Z" style="fill:#fff"/><path d="M151.91,93l2.73,5.34A16.76,16.76,0,0,1,164.29,95c7,0,7,5.38,7,5.38s-3.84-.21-6.88-.15c-4.08.09-12.89,1.45-12.89,10,0,5.79,4.52,9.4,10.73,9.4s8.78-2.31,9.37-3.34l0,2.77h7.59V101.45c0-5.82-3.93-13-14.8-13A19.53,19.53,0,0,0,151.91,93Zm11.38,20.74c-1.77,0-4.73-.44-4.73-3.81,0-2.45,2.93-3.75,5.86-3.81,3.16-.06,6.91,0,6.91,0C171.33,111.5,166.84,113.74,163.29,113.74Z" style="fill:#fff"/><path d="M89.64,105.33a6.08,6.08,0,0,0,6.08,6.07h.33a6.08,6.08,0,0,0,6.08-6.07V90.42H110V119h-7.55v-3.67c-.83,1.2-3.23,3.58-8.41,3.58a13.14,13.14,0,0,1-9.24-4c-1.93-2.22-2.91-5.49-2.91-9.73V90.42h7.79Z" style="fill:#fff"/></g></g></svg>